# Blender v3.0.1 OBJ File: ''
# www.blender.org
mtllib bunny.mtl
o bunny
v -0.055009 0.063691 -0.180663
v -0.073789 0.057681 -0.169613
v -0.040209 0.060911 -0.153023
v -0.077819 0.030271 -0.159083
v -0.074059 0.045301 -0.156053
v 0.016841 0.038371 -0.163123
v -0.011259 0.033581 -0.170073
v -0.013509 0.028021 -0.152493
v -0.065749 0.019441 -0.180643
v -0.068299 0.017311 -0.159543
v -0.018859 -0.041529 -0.143923
v -0.010039 -0.054329 -0.129133
v -0.002729 -0.044309 -0.132983
v -0.046089 -0.045359 -0.177203
v -0.040189 -0.045539 -0.152643
v -0.035459 -0.035319 -0.162813
v 0.004961 0.088281 -0.211013
v 0.004991 0.073751 -0.202173
v -0.042649 0.056891 -0.185013
v -0.047689 0.050081 -0.190243
v -0.031929 0.053131 -0.177093
v -0.030319 0.037751 -0.181773
v 0.011031 0.037771 -0.178783
v -0.058049 0.043271 -0.131963
v -0.061829 0.054461 -0.141803
v 0.059831 -0.002289 -0.158853
v 0.063121 -0.019089 -0.173263
v 0.051771 0.020351 -0.164003
v 0.034211 0.034671 -0.181713
v 0.073331 -0.040219 -0.175403
v 0.072371 -0.023209 -0.177953
v 0.074641 -0.023009 -0.165333
v -0.058259 0.015051 -0.145503
v -0.056369 0.001681 -0.141803
v -0.031549 -0.001089 -0.138883
v 0.034581 -0.003619 -0.132773
v 0.014081 0.002891 -0.129153
v 0.012881 -0.024909 -0.125943
v -0.031399 0.019211 -0.146383
v 0.024851 -0.051809 -0.137593
v 0.027221 0.021331 -0.143063
v -0.004409 0.007021 -0.138333
v -0.040479 -0.046359 -0.139413
v 0.060211 -0.042999 -0.151313
v 0.067391 -0.026109 -0.156863
v 0.052061 -0.035039 -0.148323
v -0.014379 -0.011729 -0.140853
v -0.030659 -0.024069 -0.143973
v 0.036391 -0.033779 -0.135283
v -0.049839 0.063091 -0.231553
v -0.045319 0.081501 -0.242623
v -0.005379 -0.010529 -0.127583
v 0.030311 0.033221 -0.154163
v -0.019449 -0.057019 -0.213503
v -0.028929 -0.042759 -0.192603
v -0.007209 -0.044629 -0.209703
v -0.037479 0.048311 -0.154033
v -0.026629 0.036051 -0.165813
v -0.035689 0.063621 -0.171243
v -0.004789 0.093071 -0.198093
v 0.047941 -0.008429 -0.140153
v -0.046049 0.028331 -0.137653
v 0.050361 0.014771 -0.152183
v -0.004169 0.068091 -0.187553
v -0.066379 0.038041 -0.131353
v -0.017239 -0.057459 -0.145743
v 0.033631 -0.056539 -0.197343
v -0.032769 -0.057989 -0.196893
v 0.056221 -0.052599 -0.173383
v 0.038161 -0.055589 -0.184483
v 0.057861 0.000571 -0.190113
v 0.036391 -0.037389 -0.209763
v 0.047251 -0.007109 -0.202323
v 0.033911 -0.057149 -0.160613
v -0.069709 0.031341 -0.184103
v 0.055881 -0.034009 -0.187693
v -0.057939 -0.001159 -0.196723
v -0.047909 0.026521 -0.191803
v 0.046351 0.023431 -0.185373
v -0.046239 -0.057369 -0.162263
v -0.050859 0.088451 -0.241553
v -0.061679 0.081331 -0.226203
v -0.072689 0.007581 -0.171163
v -0.060459 0.056931 -0.188053
v -0.007629 0.031421 -0.187763
v -0.047089 -0.055659 -0.142113
v -0.044729 0.063121 -0.178263
v -0.075259 0.032051 -0.140203
v -0.033099 -0.022079 -0.196583
v -0.054319 0.068921 -0.229703
v -0.069849 -0.004539 -0.177973
v -0.058899 -0.013619 -0.147703
v -0.017669 -0.005009 -0.207013
v -0.020189 0.017101 -0.201503
v 0.000751 0.005311 -0.209433
v -0.040449 -0.035949 -0.180163
v -0.065429 -0.016619 -0.166023
v 0.038671 -0.055219 -0.168673
v 0.037321 -0.055859 -0.173873
v -0.004219 -0.005299 -0.219703
v -0.014559 -0.014779 -0.215473
v -0.061199 -0.017799 -0.187983
v 0.027571 0.023741 -0.198693
v 0.022161 -0.054999 -0.149343
v 0.005131 -0.052269 -0.143813
v -0.010159 -0.054059 -0.166943
v 0.024241 0.000751 -0.212723
v -0.012039 -0.057069 -0.165183
v -0.018409 -0.057079 -0.148073
v -0.020249 -0.056499 -0.159623
v -0.023329 -0.060489 -0.181943
v -0.052169 -0.054259 -0.183833
v -0.001369 -0.026229 -0.219253
v -0.041699 -0.000629 -0.202623
v -0.029599 -0.059599 -0.158843
v 0.029271 -0.050339 -0.206283
v 0.021661 -0.016579 -0.216373
v 0.022641 -0.056669 -0.176103
v 0.017061 -0.053079 -0.182833
v -0.014559 -0.053609 -0.150263
v 0.024301 -0.057459 -0.146173
v 0.029701 -0.057419 -0.161233
v 0.031211 -0.052939 -0.181273
v -0.023269 -0.056869 -0.170633
v -0.006899 -0.052629 -0.144183
v -0.015539 -0.052319 -0.182783
v -0.009959 -0.057639 -0.139173
v -0.000049 -0.056989 -0.138973
v -0.053909 -0.028429 -0.162843
v 0.021341 -0.057799 -0.173483
v -0.038159 -0.059489 -0.166853
v 0.024521 -0.056959 -0.164523
v -0.001739 -0.052479 -0.143253
v -0.030679 -0.056249 -0.174573
v -0.023249 -0.055629 -0.189993
v -0.021649 -0.053279 -0.189963
v -0.016739 -0.053599 -0.183183
vn -0.0801 0.9723 0.2194
vn -0.1892 0.9623 0.1956
vn -0.1213 0.9817 0.1467
vn -0.9880 0.1541 -0.0093
vn -0.8743 0.3843 0.2966
vn -0.8970 0.3353 0.2879
vn -0.0109 0.9826 0.1856
vn 0.0032 0.9970 0.0772
vn -0.0545 0.7290 0.6824
vn -0.9050 0.0051 -0.4253
vn -0.7552 -0.6455 0.1138
vn -0.8429 -0.5288 -0.1000
vn -0.3939 0.5657 0.7245
vn -0.8605 0.4679 0.2014
vn -0.8764 0.4764 0.0707
vn -0.8477 0.5135 0.1333
vn -0.1227 -0.5160 -0.8477
vn 0.1149 -0.7962 -0.5941
vn 0.5602 0.1622 -0.8123
vn 0.6010 0.2149 -0.7698
vn 0.5292 0.1751 -0.8302
vn -0.0708 0.9730 -0.2195
vn -0.0702 0.6454 0.7606
vn 0.1662 0.6824 0.7119
vn 0.9284 0.1594 0.3356
vn 0.9939 0.1020 -0.0421
vn 0.8274 0.5571 0.0707
vn 0.3312 0.9057 -0.2645
vn 0.9837 0.0289 -0.1774
vn -0.0539 0.3010 0.9521
vn -0.1587 -0.0964 0.9826
vn -0.0395 0.1290 0.9909
vn 0.3955 0.2116 0.8938
vn 0.0015 0.3912 0.9203
vn 0.1117 -0.1160 0.9869
vn -0.0132 0.5040 0.8636
vn -0.1417 -0.1378 0.9803
vn 0.4288 -0.6453 0.6323
vn 0.1386 0.5786 0.8038
vn -0.1925 0.5565 0.8082
vn -0.2067 0.9768 0.0565
vn 0.4345 0.1091 0.8940
vn 0.7183 -0.2368 0.6542
vn -0.0815 -0.1348 0.9875
vn -0.0423 -0.1490 0.9879
vn -0.1731 -0.2132 0.9616
vn 0.0234 -0.1454 0.9891
vn 0.4632 -0.1986 0.8637
vn 0.9010 -0.3889 -0.1925
vn 0.9357 -0.3195 -0.1493
vn -0.7894 -0.0839 0.6081
vn -0.1417 -0.1379 0.9803
vn -0.7596 0.0853 0.6448
vn 0.3190 0.8195 0.4761
vn -0.6060 0.5017 -0.6173
vn -0.5946 0.2231 -0.7724
vn -0.4443 0.6333 -0.6336
vn -0.1785 0.1600 0.9708
vn 0.9517 0.2807 0.1243
vn 0.8457 0.2319 0.4807
vn 0.8776 0.3372 0.3408
vn 0.5391 -0.0872 0.8377
vn 0.7121 0.2196 0.6669
vn 0.7120 0.2195 0.6669
vn 0.6806 0.0706 0.7293
vn 0.7177 -0.2377 0.6546
vn 0.7156 0.3057 0.6281
vn 0.6964 0.1890 0.6923
vn -0.2231 -0.6442 0.7316
vn 0.1166 -0.5826 0.8043
vn 0.1129 -0.4440 0.8889
vn 0.8585 0.1463 0.4915
vn 0.9461 0.1868 0.2646
vn 0.6435 0.4585 0.6129
vn 0.1831 -0.7684 -0.6132
vn 0.2282 -0.8791 -0.4184
vn 0.1991 -0.2048 0.9583
vn -0.0459 -0.4541 0.8898
vn 0.6505 0.4876 0.5823
vn -0.8988 -0.1389 0.4158
vn 0.0790 0.9120 0.4025
vn -0.1549 0.9315 0.3291
vn -0.0637 -0.9929 -0.1000
vn 0.0733 -0.9931 0.0917
vn 0.0215 -0.9989 -0.0411
vn 0.2455 -0.0387 0.9686
vn 0.7744 -0.4746 0.4185
vn 0.8217 -0.2951 0.4876
vn 0.8668 -0.2221 0.4466
vn 0.7693 -0.3653 0.5242
vn 0.4287 -0.6453 0.6323
vn 0.4718 -0.2944 0.8311
vn 0.5391 -0.0871 0.8377
vn -0.3326 -0.2219 0.9166
vn 0.0869 0.9320 0.3520
vn 0.3558 -0.9340 -0.0328
vn 0.4337 -0.5899 -0.6811
vn 0.4890 -0.4364 -0.7552
vn 0.8774 0.1562 -0.4536
vn 0.5535 -0.2477 -0.7951
vn 0.5617 0.2217 -0.7971
vn 0.8590 -0.4552 -0.2342
vn -0.0881 -0.4275 0.8997
vn -0.9880 0.1541 -0.0094
vn -0.8856 0.1109 -0.4510
vn -0.9093 -0.0556 -0.4124
vn -0.9093 -0.0556 -0.4125
vn 0.7247 -0.3217 -0.6094
vn -0.6860 0.1544 -0.7111
vn -0.9050 0.0052 -0.4253
vn -0.3098 0.1996 -0.9296
vn 0.6500 0.5824 -0.4882
vn -0.9047 0.3989 0.1501
vn 0.6926 -0.5425 -0.4754
vn 0.2202 -0.9745 -0.0434
vn 0.8111 0.3052 0.4989
vn 0.7744 -0.4745 0.4185
vn 0.4783 -0.8336 0.2761
vn 0.6701 0.6853 0.2852
vn 0.7795 0.5883 0.2152
vn -0.0834 0.9251 0.3705
vn 0.0582 0.9633 0.2620
vn 0.2200 0.9629 0.1565
vn 0.3712 0.9250 -0.0817
vn -0.1051 0.9039 0.4146
vn -0.2589 0.8617 0.4363
vn -0.9085 0.2914 -0.2996
vn -0.8818 0.4680 -0.0593
vn -0.4758 0.7950 -0.3763
vn 0.2144 0.9767 -0.0012
vn 0.0035 0.8332 -0.5529
vn -0.8404 0.5411 -0.0306
vn -0.8174 0.5758 0.0178
vn -0.1696 0.9610 0.2183
vn -0.1876 0.9633 0.1922
vn 0.5432 0.7642 0.3477
vn 0.1895 0.7499 -0.6338
vn -0.6157 -0.6602 0.4301
vn -0.7891 0.3520 0.5034
vn -0.8177 0.2118 0.5352
vn -0.6209 -0.2670 -0.7370
vn -0.3746 -0.3865 -0.8428
vn -0.9121 0.4098 -0.0124
vn 0.1595 -0.2150 0.9635
vn 0.2613 -0.9439 -0.2020
vn -0.7495 -0.3815 -0.5410
vn -0.6124 -0.3086 -0.7278
vn -0.6878 -0.5819 -0.4340
vn -0.7908 0.1964 -0.5797
vn -0.9667 -0.1406 -0.2138
vn -0.7737 -0.3414 0.5338
vn -0.9153 -0.2276 0.3324
vn -0.7982 0.4587 0.3903
vn -0.8566 -0.0402 0.5143
vn -0.8322 -0.0059 0.5544
vn -0.8087 0.0483 0.5863
vn -0.4207 0.1313 -0.8977
vn -0.0915 0.4811 -0.8719
vn -0.1259 0.5921 -0.7959
vn -0.8291 0.5412 0.1402
vn -0.6435 0.5468 0.5357
vn -0.8844 0.3890 0.2577
vn -0.6435 0.5469 0.5356
vn -0.1991 -0.3813 -0.9028
vn -0.3876 0.8092 0.4415
vn -0.6575 -0.3018 -0.6904
vn -0.8165 -0.3557 -0.4548
vn -0.9413 -0.0102 0.3375
vn 0.2211 -0.9739 -0.0506
vn 0.4030 -0.9152 0.0087
vn -0.2022 0.3587 -0.9113
vn -0.6290 0.3847 -0.6755
vn -0.6186 0.3534 -0.7017
vn -0.7391 -0.6206 -0.2618
vn -0.9658 -0.2509 -0.0658
vn -0.6388 0.4421 -0.6297
vn -0.6383 0.4274 -0.6402
vn -0.8736 0.3969 0.2817
vn -0.7995 -0.5473 -0.2475
vn -0.8463 0.5285 0.0676
vn -0.7900 -0.6119 0.0391
vn 0.2360 0.6109 -0.7557
vn -0.2924 -0.9563 0.0079
vn -0.0172 -0.9975 0.0685
vn -0.0031 -0.9998 0.0197
vn 0.2405 0.4010 -0.8840
vn -0.0436 0.7052 -0.7076
vn -0.0236 -0.9974 0.0676
vn 0.0341 -0.9992 0.0186
vn 0.0883 -0.9960 0.0128
vn -0.0237 -0.9974 0.0676
vn -0.4510 -0.8881 0.0886
vn 0.9648 0.1639 -0.2056
vn -0.0099 0.6884 -0.7252
vn -0.5184 0.5455 -0.6585
vn -0.5275 0.7090 -0.4681
vn 0.5509 -0.0932 -0.8293
vn -0.0595 -0.2291 -0.9716
vn -0.4080 -0.1737 -0.8963
vn -0.3657 -0.2013 -0.9087
vn -0.3812 -0.3728 -0.8460
vn -0.3158 -0.4801 -0.8184
vn -0.3021 -0.3962 -0.8670
vn -0.2725 -0.0520 -0.9608
vn -0.0218 -0.9851 0.1705
vn 0.1773 -0.5694 -0.8027
vn 0.2908 0.0345 -0.9562
vn -0.2943 -0.9550 -0.0380
vn -0.1359 -0.9902 0.0313
vn -0.2371 0.0220 -0.9712
vn -0.1335 0.0669 -0.9888
vn -0.6391 0.4566 -0.6190
vn 0.0935 -0.3378 0.9366
vn 0.8806 -0.4065 0.2434
vn 0.8106 -0.5252 0.2591
vn 0.7248 -0.6341 0.2695
vn -0.3108 -0.6529 -0.6907
vn 0.4684 0.0540 -0.8819
vn 0.2162 0.2088 0.9538
vn -0.7736 -0.3414 0.5338
vn -0.4905 -0.8382 -0.2384
vn 0.3714 -0.9057 0.2046
vn 0.2489 -0.9090 0.3342
vn -0.2303 -0.9728 -0.0263
vn -0.5861 -0.7819 -0.2125
vn -0.2924 -0.9562 0.0079
vn 0.6191 0.1358 -0.7735
vn -0.3775 -0.9245 -0.0535
vn 0.2202 -0.9745 -0.0433
vn -0.4510 -0.8881 0.0885
vn -0.7109 -0.6687 0.2178
vn -0.4918 -0.8286 0.2676
vn 0.4615 0.1514 0.8741
vn 0.0485 -0.9982 0.0355
vn -0.0233 -0.9946 -0.1013
vn 0.0873 -0.9949 0.0498
vn -0.0580 0.9641 -0.2591
vn -0.5384 -0.8058 0.2465
vn -0.4941 -0.8694 -0.0067
vn -0.8770 0.3788 0.2957
vn -0.1290 -0.9845 0.1186
vn 0.0733 -0.9931 0.0918
vn -0.2342 -0.9722 0.0032
vn -0.2668 -0.9607 -0.0762
vn -0.7182 0.6935 -0.0561
vn 0.1873 0.9695 -0.1580
vn -0.1207 -0.9894 0.0802
vn -0.3207 -0.7563 0.5702
vn 0.0299 -0.9995 -0.0019
vn -0.0761 -0.9955 0.0563
vn -0.1129 -0.9439 0.3102
vn -0.0115 -0.9200 0.3917
vn 0.2912 0.0051 -0.9567
vn -0.1990 -0.3813 -0.9028
vn -0.3283 -0.8784 0.3473
vn 0.1365 -0.9814 0.1347
vn 0.4246 -0.9048 0.0309
vn -0.0500 -0.9953 0.0824
vn 0.1034 -0.9760 0.1918
vn -0.7130 -0.5971 -0.3676
vn -0.0952 -0.0925 0.9912
vn -0.1805 0.1100 0.9774
vn 0.0160 -0.9981 -0.0591
vn -0.0053 -0.2907 0.9568
usemtl Explorer_Default
s 1
f 1//1 2//2 3//3
f 4//4 5//5 2//6
f 6//7 7//8 8//9
f 9//10 10//11 4//12
f 11//13 12//13 13//13
f 14//14 15//15 16//16
f 17//17 18//17 19//18
f 20//19 21//20 22//21
f 23//22 7//8 6//7
f 24//23 3//24 25//23
f 26//25 27//26 28//27
f 23//22 6//7 29//28
f 30//29 31//29 32//29
f 33//30 34//31 35//32
f 36//33 37//34 38//35
f 39//36 33//30 35//32
f 13//37 40//38 38//35
f 41//39 42//40 37//34
f 11//41 15//41 43//41
f 44//42 45//42 46//43
f 35//32 8//9 39//36
f 11//44 47//45 48//46
f 48//46 47//45 35//32
f 47//45 42//47 35//32
f 42//40 8//9 35//32
f 49//48 36//33 38//35
f 20//49 50//50 51//49
f 11//51 13//52 52//53
f 6//7 8//9 53//54
f 54//55 55//56 56//57
f 8//9 41//39 53//54
f 13//37 38//35 52//58
f 37//34 42//40 52//58
f 6//7 53//54 29//28
f 41//39 8//9 42//40
f 38//35 37//34 52//58
f 21//59 57//60 58//61
f 59//62 18//63 60//64
f 26//25 61//65 46//66
f 62//67 57//60 24//68
f 33//69 39//70 62//71
f 57//60 3//72 24//68
f 3//72 57//60 59//73
f 41//39 37//34 36//33
f 36//33 61//65 63//74
f 21//75 19//18 64//76
f 62//67 58//61 57//60
f 63//74 41//39 36//33
f 24//77 65//78 62//71
f 39//79 58//61 62//67
f 61//65 26//25 63//74
f 49//48 46//66 61//65
f 61//65 36//33 49//48
f 12//80 11//51 66//80
f 18//81 59//82 64//81
f 59//73 57//60 21//59
f 67//83 68//84 54//85
f 49//48 38//35 40//86
f 27//26 26//25 46//66
f 30//87 45//88 44//89
f 45//88 30//87 32//90
f 46//66 49//48 40//91
f 21//92 64//92 59//93
f 11//44 48//46 15//94
f 58//95 39//36 8//9
f 69//96 70//97 30//98
f 71//99 72//100 73//101
f 20//49 51//49 19//102
f 74//103 44//103 46//103
f 4//104 2//105 75//106
f 9//10 4//12 75//107
f 76//108 72//100 71//99
f 77//109 9//110 78//111
f 79//112 71//99 73//101
f 14//14 80//113 15//15
f 27//26 71//99 28//27
f 67//114 76//108 70//115
f 72//100 76//108 67//114
f 79//112 28//27 71//99
f 26//25 28//27 63//74
f 17//116 60//64 18//63
f 69//96 30//117 44//118
f 81//119 19//119 51//120
f 81//121 82//121 1//1
f 27//122 32//123 31//124
f 32//123 27//122 45//125
f 27//122 46//126 45//125
f 83//127 10//128 9//110
f 2//129 1//129 84//129
f 22//130 7//8 85//131
f 86//132 43//133 15//15
f 22//130 58//95 7//8
f 87//134 3//3 59//82
f 3//3 2//2 25//135
f 7//8 58//95 8//9
f 87//134 1//1 3//3
f 53//54 63//74 28//27
f 81//119 1//136 19//119
f 1//137 87//137 19//137
f 7//8 23//22 85//131
f 79//112 29//28 28//27
f 29//28 53//54 28//27
f 10//11 88//138 4//12
f 52//53 42//139 47//140
f 55//56 14//141 89//142
f 48//143 16//16 15//15
f 66//144 11//44 43//144
f 19//18 18//145 64//76
f 11//51 52//53 47//140
f 90//146 51//147 50//148
f 84//149 75//106 2//105
f 91//150 92//151 83//152
f 5//5 25//153 2//6
f 92//151 10//154 83//152
f 92//151 34//155 10//154
f 34//155 33//156 10//154
f 93//157 94//158 95//159
f 16//16 96//160 14//14
f 65//161 25//153 5//5
f 65//161 5//5 88//162
f 65//163 24//23 25//23
f 41//39 63//74 53//54
f 55//56 93//157 56//164
f 60//165 87//134 59//82
f 95//159 94//158 85//131
f 81//166 90//146 82//167
f 92//151 91//150 97//168
f 98//169 99//170 70//115
f 93//157 100//171 101//172
f 93//157 95//159 100//171
f 55//56 54//55 68//173
f 90//146 84//174 82//167
f 56//175 93//175 101//175
f 87//176 60//177 17//176
f 84//178 1//178 82//178
f 102//179 91//150 77//109
f 14//14 96//160 89//180
f 91//150 9//110 77//109
f 83//127 9//110 91//150
f 102//179 97//181 91//150
f 4//4 88//162 5//5
f 27//26 76//108 71//99
f 79//112 103//182 29//28
f 79//112 73//101 103//182
f 104//183 105//184 106//185
f 103//182 73//101 107//186
f 23//22 29//28 85//131
f 27//187 31//187 76//187
f 108//188 109//189 110//190
f 108//191 110//190 111//192
f 107//186 100//171 95//159
f 81//166 51//147 90//146
f 103//182 95//159 85//131
f 29//28 103//182 85//131
f 58//61 22//193 21//59
f 22//194 94//158 78//111
f 22//194 85//131 94//158
f 112//195 14//196 55//56
f 95//159 103//182 107//186
f 30//98 76//108 31//197
f 68//173 112//195 55//56
f 100//171 113//198 101//199
f 70//97 76//108 30//98
f 75//200 78//111 9//201
f 102//202 77//203 114//204
f 110//190 109//189 115//205
f 102//202 114//204 89//142
f 77//109 78//111 114//204
f 67//114 116//206 72//100
f 72//100 117//207 73//101
f 118//208 104//183 119//209
f 78//111 84//210 20//211
f 117//207 107//186 73//101
f 93//157 114//204 94//158
f 78//111 75//200 84//210
f 19//212 87//176 17//176
f 113//198 72//100 116//206
f 67//83 56//164 116//206
f 89//142 114//204 93//157
f 100//171 107//186 117//207
f 94//158 114//204 78//111
f 72//100 113//198 117//207
f 43//144 86//213 66//144
f 106//214 120//215 108//215
f 113//198 100//171 117//207
f 120//215 109//216 108//215
f 56//164 113//198 116//206
f 96//217 102//202 89//142
f 55//56 89//142 93//157
f 20//19 22//21 78//218
f 56//164 101//199 113//198
f 12//219 40//86 13//52
f 90//146 50//148 84//174
f 34//31 92//220 48//46
f 20//221 84//174 50//148
f 69//96 98//169 70//115
f 74//222 121//223 122//224
f 122//224 121//225 104//226
f 19//227 21//20 20//19
f 74//222 40//91 121//223
f 104//183 106//185 119//209
f 69//96 74//222 98//169
f 123//228 70//229 99//228
f 111//230 110//231 124//232
f 33//69 88//138 10//11
f 70//229 118//208 67//83
f 118//233 70//233 123//233
f 15//15 80//113 86//132
f 88//138 33//69 65//78
f 33//69 62//71 65//78
f 105//184 125//234 106//185
f 106//185 126//235 119//209
f 125//234 120//236 106//185
f 121//237 127//237 128//237
f 102//179 129//238 97//181
f 96//239 129//238 102//179
f 129//238 92//220 97//181
f 44//118 74//222 69//96
f 80//113 14//14 112//240
f 122//224 104//226 130//241
f 74//222 46//66 40//91
f 68//242 131//243 112//244
f 118//245 130//245 104//245
f 132//246 122//246 130//246
f 131//243 80//247 112//244
f 129//238 48//248 92//220
f 133//249 125//234 105//184
f 66//250 127//251 12//252
f 54//253 56//254 67//253
f 48//248 129//238 16//255
f 68//84 134//256 131//257
f 115//205 80//247 131//243
f 80//247 66//250 86//258
f 134//256 68//84 135//259
f 111//230 134//260 135//260
f 121//223 12//252 127//251
f 121//223 40//91 12//252
f 109//189 80//247 115//205
f 109//189 66//250 80//247
f 119//261 136//262 135//262
f 119//209 137//263 136//263
f 119//209 135//259 68//84
f 126//264 137//264 119//261
f 111//230 124//232 134//256
f 35//32 34//31 48//46
f 67//83 118//208 119//209
f 68//84 67//83 119//209
f 129//238 96//239 16//255
